<svg version="1" xmlns="http://www.w3.org/2000/svg" width="668" height="668" viewBox="0 0 501.000000 501.000000"><path d="M191.3 2.5c-10.1 5.1-12.3 16.8-4.4 23.9 1.8 1.6 2.1 3.1 2.1 9.3 0 7.1-.1 7.3-2.5 7.4-1.4.1-2.8.2-3.2.3-1.1.3-10.1 1.6-14.3 2.2-1.9.3-5.7.9-8.5 1.4-2.7.5-7.2 1.2-10 1.5-2.7.4-5.7.8-6.5 1-.8.2-3.5.7-6 1-2.5.3-7 1-10 1.5s-7.3 1.2-9.5 1.5c-2.2.2-5 .7-6.1.9-2.1.4-3.3.6-16.4 2.7-11.1 1.7-12.4 1.9-15 2.4-1.4.2-5 .7-8 1.1-3 .3-5.7.7-6 .9-.3.2-2.7.6-5.5.9-8.3 1.1-11.9 1.7-13.5 2.1-.8.2-3.5.7-6 1-2.5.3-7.1 1-10.2 1.6-3.2.5-6.9 1.1-8.2 1.3-1.4.3-6 1-10.3 1.6-4.3.6-8.7 1.3-9.8 1.5-1.1.2-2.4.4-2.8.4-.7.1-.4 4.6.9 11.6.2 1 .6 3.7.9 6 .7 4.3 4.2 26.8 5.1 32.5.4 1.9.8 4.8 1.1 6.5.5 3.5 4.2 26.8 4.8 30.5.2 1.4.7 4.7 1 7.5.4 2.7.8 5.7 1 6.5.2.8.7 3.3 1 5.5.3 2.3.7 5 .9 6 .2 1.1.9 5.6 1.6 10 .6 4.4 1.3 9.1 1.5 10.5 1.7 10.8 2.7 16.9 3 19 .2 1.4.7 4.3 1 6.5.4 2.2.8 5.1 1 6.5.3 1.4.7 4.3 1 6.5.3 2.2 1.3 7.8 2 12.5.8 4.7 1.7 10.7 2 13.4.4 2.8.8 5.3 1 5.6.2.3.6 3.3 1 6.5.3 3.3.9 6.9 1.2 7.9.3 1.1.7 3.4.9 5 .1 1.7.5 4.4.8 6.1 1.2 7.5 3.6 22.4 4 26 .3 2.2.9 6.2 1.5 9 .5 2.7 1.2 7.4 1.6 10.4.4 3 .9 6.3 1.1 7.5.2 1.2.9 5.2 1.5 9.1.6 3.8 1.5 9.7 2 13 .5 3.3 1.2 7.6 1.4 9.5.3 1.9 1 6 1.5 9s1.2 7.3 1.5 9.5c.3 2.3.7 5 .9 6 .2 1.1.7 4.2 1 6.8.4 2.7.9 5.7 1.1 6.7.6 2.9 3.1 19.3 4 25.7.2 1.3.6 4 .9 6 .4 2.1.8 5.1 1 6.8.3 1.6.7 4.6 1.1 6.5.3 1.9.8 4.6 1 6 .4 2.9 1.8 12.3 2 13 .1.3.5 3.3 1 6.8l.8 6.3 5.1-.6c2.8-.4 6-.9 7.1-1.1 1.1-.3 3.6-.7 5.5-1 1.9-.3 4.6-.7 6-1 1.4-.2 4.1-.7 6-.9 1.9-.3 4.6-.8 6-1.1 1.4-.3 3.8-.8 5.3-1 4.7-.6 10.2-1.4 12.7-1.9 1.4-.3 4.8-.8 7.5-1.1 2.8-.4 5.3-.8 5.6-1 .4-.2 2.7-.6 5-.9 2.4-.3 9.8-1.5 16.4-2.6 6.6-1.1 13.4-2.2 15-2.5 1.7-.2 5.5-.9 8.5-1.4 3-.5 7.1-1.2 9-1.5 1.9-.3 6-1 9-1.5 5.8-1.1 7-1.3 13.5-2.5 2.2-.4 5.1-.9 6.5-1.1 1.4-.2 4.1-.7 6-1 1.9-.3 4.6-.8 6-1 1.4-.2 4.5-.9 7-1.4 2.5-.6 5.9-1.2 7.5-1.4 2.4-.3 13.3-2.3 27-5 2.3-.4 18.7-3.5 22.5-4.3 1.4-.2 7.7-1.5 14-2.9s12.6-2.7 14-3c1.4-.2 3.6-.7 5-1 1.4-.3 3.4-.8 4.5-1.1 1.1-.2 3.3-.6 4.8-.9 2.5-.5 54-13.5 59.2-14.9 2.3-.7 2.5-.8 8.5-2.4 2.5-.6 5.6-1.6 7-2.2 1.4-.5 3.4-1.1 4.5-1.3 3.3-.7 20.7-6.6 24.2-8.2 1.7-.7 3.6-1.4 4.2-1.4 1.3 0 17.9-6.6 27.6-10.9 8.6-3.9 14.9-7.2 23.8-12.4 6.3-3.7 7.7-5.1 5.9-5.9-.4-.2-3.3-3.5-6.4-7.3-19.6-24.4-36.9-63.4-48.9-110.5-3.8-14.6-9.1-38.5-10.4-46.1-.3-1.9-1-5.4-1.5-7.9s-1.4-7.2-2-10.5c-.5-3.3-1.2-7.1-1.5-8.5-1-5.3-2.6-13.6-3.1-16-.3-1.4-.9-3.9-1.4-5.5-.7-2.7-1.2-5.1-2.6-13.5-.3-1.4-.7-3.6-.9-5-.3-1.4-.7-3.6-1-5-.8-5-2.4-14.6-3-17.5-.3-1.7-.9-5.7-1.5-9-.9-5.7-1.3-7.6-2.5-13.5-.2-1.4-.7-3.9-.9-5.5-.3-1.7-1.2-7.1-2.1-12-2.1-11.8-3.3-19.1-4-24-.4-2.2-.8-4.7-1-5.5-.2-.8-.7-3.1-1-5-1.1-6.7-4.6-26.5-6-34.5-.8-4.4-1.7-9.8-2-12-1.1-7.6-1.2-7.7-6.3-7.1-2.6.3-5.9.8-7.4 1.1-6.8 1.3-8.5 1.6-12.3 2-3.5.5-9.1 1.3-20 3.1-1.6.2-4.1.6-5.5.9-1.4.3-4.7.7-7.5 1-2.7.4-5.7.8-6.5 1-1.7.5-5.5 1.1-12 2-2.5.3-8.8 1.3-14 2.1-5.2.8-10.6 1.7-12 1.9-5.3.8-11.6 1.8-13.5 2.1-1 .2-3.7.6-6 .9-2.2.3-5.1.8-6.5 1-1.4.3-3.8.7-5.5.9-1.6.3-4.3.7-6 1-1.6.3-5 .8-7.5 1.1-2.5.3-5.2.8-6 1-.8.2-3.7.7-6.5 1-2.7.3-8.3 1.2-12.2 1.9-4 .7-7.3 1-7.4.7-1.1-5.6-.4-9.4 2.2-12.4 3.4-3.8 4.7-10.4 2.9-14.6-4.1-9.9-17.9-14-28.7-8.6z"/></svg>